<?xml version="1.0" standalone="no"?><!DOCTYPE svg PUBLIC "-//W3C//DTD SVG 1.1//EN" "http://www.w3.org/Graphics/SVG/1.1/DTD/svg11.dtd"><svg t="1651653241585" class="icon" viewBox="0 0 1024 1024" version="1.1" xmlns="http://www.w3.org/2000/svg" p-id="4374" xmlns:xlink="http://www.w3.org/1999/xlink" width="16" height="16"><defs><style type="text/css"></style></defs><path d="M5.231427 941.370814h1008.0114v33.16277H5.231427z" fill="#6E6E96" p-id="4375"></path><path d="M762.793445 769.662284h33.16277v188.289915h-33.16277z" fill="#6E6E96" p-id="4376"></path><path d="M777.998575 962.068528m-45.350087 0a45.350087 45.350087 0 1 0 90.700174 0 45.350087 45.350087 0 1 0-90.700174 0Z" fill="#FFC65F" p-id="4377"></path><path d="M777.998575 1024c-34.145217 0-61.927327-27.78211-61.927327-61.931472 0-34.145217 27.78211-61.927327 61.927327-61.927327s61.927327 27.78211 61.927327 61.927327c0 34.149362-27.78211 61.931472-61.927327 61.931472z m0-90.700175a28.79772 28.79772 0 0 0-28.764557 28.764557c0 15.86424 12.904463 28.768703 28.764557 28.768703s28.764557-12.904463 28.764557-28.768703a28.79772 28.79772 0 0 0-28.764557-28.764557zM245.99728 624.575167h33.162769v333.377032h-33.162769z" fill="#6E6E96" p-id="4378"></path><path d="M261.206555 962.068528m-45.350088 0a45.350087 45.350087 0 1 0 90.700175 0 45.350087 45.350087 0 1 0-90.700175 0Z" fill="#FFC65F" p-id="4379"></path><path d="M261.206555 1024c-34.149362 0-61.931472-27.78211-61.931472-61.931472 0-34.145217 27.78211-61.927327 61.931472-61.927327s61.931472 27.78211 61.931472 61.927327c0 34.149362-27.78211 61.931472-61.931472 61.931472z m0-90.700175a28.79772 28.79772 0 0 0-28.768703 28.764557c0 15.86424 12.904463 28.768703 28.768703 28.768703s28.768703-12.904463 28.768702-28.768703a28.79772 28.79772 0 0 0-28.768702-28.764557z" fill="#6E6E96" p-id="4380"></path><path d="M589.020532 40.404689h373.334025v675.011594H589.020532z" fill="#A8A8BD" p-id="4381"></path><path d="M589.020532 40.404689h51.667595v675.011594H589.020532zM906.064901 40.404689h56.27722v675.011594h-56.27722z" fill="#A8A8BD" p-id="4382"></path><path d="M596.490446 52.708077h335.731589v17.000065h-335.731589z" fill="#EBEBFA" opacity=".23" p-id="4383"></path><path d="M640.688127 40.404689h16.200013v675.011594h-16.200013zM932.222035 40.404689h30.140812v670.29419h-30.140812z" fill="#6E6E96" opacity=".2" p-id="4384"></path><path d="M640.688127 731.997668H589.020532a16.581385 16.581385 0 0 1-16.581384-16.581385V40.404689a16.581385 16.581385 0 0 1 16.581384-16.581384h51.667595a16.581385 16.581385 0 0 1 16.581385 16.581384v675.011594a16.581385 16.581385 0 0 1-16.581385 16.581385z m-35.08621-33.162769h18.504826V56.986074h-18.504826v641.848825zM962.346266 731.997668h-56.27722a16.581385 16.581385 0 0 1-16.581385-16.581385V40.404689a16.581385 16.581385 0 0 1 16.581385-16.581384h56.27722a16.581385 16.581385 0 0 1 16.581385 16.581384v675.011594a16.581385 16.581385 0 0 1-16.581385 16.581385z m-39.699981-33.162769h23.114451V56.986074h-23.114451v641.848825z" fill="#6E6E96" p-id="4385"></path><path d="M962.354557 731.997668H589.020532a16.581385 16.581385 0 0 1-16.581384-16.581385V40.404689a16.581385 16.581385 0 0 1 16.581384-16.581384h373.334025a16.581385 16.581385 0 0 1 16.581384 16.581384v675.011594a16.581385 16.581385 0 0 1-16.581384 16.581385z m-356.75264-33.162769h340.171255V56.986074H605.601917v641.848825z" fill="#6E6E96" p-id="4386"></path><path d="M679.969428 82.309994h185.935359v33.16277H679.969428zM679.969428 138.29704h185.935359v33.16277H679.969428zM679.969428 194.27994h185.935359v33.16277H679.969428zM679.969428 250.266986h185.935359v33.16277H679.969428zM679.969428 306.254032h185.935359v33.16277H679.969428zM679.969428 362.236932h185.935359v33.16277H679.969428zM679.969428 418.219833h185.935359v33.16277H679.969428zM679.969428 474.206879h185.935359v33.162769H679.969428zM679.969428 530.185634h185.935359v33.162769H679.969428zM679.969428 586.185116h185.935359v33.162769H679.969428zM679.969428 642.163871h185.935359v33.162769H679.969428z" fill="#6E6E96" p-id="4387"></path><path d="M254.561565 340.05933m-230.817022 0a230.817022 230.817022 0 1 0 461.634044 0 230.817022 230.817022 0 1 0-461.634044 0Z" fill="#B8D9FF" p-id="4388"></path><path d="M86.583846 338.193924c0-119.062634 83.75672-217.046182 191.307727-229.461493a234.158171 234.158171 0 0 0-24.892804-1.355528c-127.481832 0-230.821167 103.343481-230.821167 230.817021 0 127.469396 103.33519 230.812876 230.821167 230.812877 8.406762 0 16.705745-0.472569 24.888659-1.351383-107.546862-12.419457-191.303582-110.403005-191.303582-229.461494z" fill="#FFFFFF" opacity=".21" p-id="4389"></path><path d="M254.561565 587.453592c-136.415053 0-247.398407-110.979208-247.398407-247.394262s110.983354-247.398407 247.398407-247.398406 247.398407 110.983354 247.398407 247.398406-110.983354 247.394261-247.398407 247.394262z m0-461.629899c-118.129931 0-214.235637 96.105706-214.235637 214.235637 0 118.129931 96.105706 214.231492 214.235637 214.231492s214.235637-96.105706 214.235637-214.231492c0-118.129931-96.105706-214.235637-214.235637-214.235637z" fill="#6E6E96" p-id="4390"></path><path d="M257.173133 105.996502c-10.935423 0-21.67187 0.812488-32.201049 2.284086 112.218667 15.677699 198.611827 111.986528 198.611827 228.528791 0 116.546408-86.39316 212.863527-198.611827 228.524645 10.529179 1.467453 21.265626 2.292376 32.201049 2.292377 127.469396 0 230.817022-103.339335 230.817022-230.817022 0-127.469396-103.347626-230.812876-230.817022-230.812877z" fill="#6E6E96" opacity=".15" p-id="4391"></path><path d="M251.506445 113.603213S202.479435 165.034523 202.479435 338.368029c-0.352354 67.627178 7.834704 184.654447 49.02701 225.850897 0 0-128.804197-29.067168-128.804197-225.850897 0-212.250016 128.804197-224.764816 128.804197-224.764816z" fill="#FFFFFF" opacity=".21" p-id="4392"></path><path d="M259.697649 587.391411c-65.583522 0-115.041648-106.618304-115.041648-248.007772 0-141.385323 49.458126-248.003627 115.041648-248.003627 65.575232 0 115.029212 106.618304 115.029212 248.003627 0 141.389468-49.449835 248.007773-115.029212 248.007772z m0-462.84863c-38.72997 0-81.878878 88.233694-81.878878 214.840858 0 126.611309 43.153054 214.845003 81.878878 214.845003 38.721679 0 81.866442-88.233694 81.866442-214.845003 0-126.607164-43.144763-214.840858-81.866442-214.840858z" fill="#6E6E96" p-id="4393"></path><path d="M254.014379 436.455211c-119.987046 0-247.510331-34.613641-247.510331-98.762873S134.027333 238.929464 254.014379 238.929464s247.510331 34.613641 247.510331 98.762874-127.523285 98.762873-247.510331 98.762873z m0-164.362977c-59.838072 0-115.854136 8.207785-157.730423 23.110305-34.393937 12.241207-56.617138 28.917935-56.617138 42.489799 0 26.749919 83.503854 65.600104 214.347561 65.600103 59.838072 0 115.854136-8.207785 157.730423-23.110305 34.393937-12.241207 56.617138-28.917935 56.617139-42.489798 0-26.745774-83.499709-65.600104-214.347562-65.600104z" fill="#6E6E96" p-id="4394"></path></svg>